<svg width="95" height="90" viewBox="0 0 95 90" fill="none" xmlns="http://www.w3.org/2000/svg">
<path d="M47 67.6875C47 67.6875 21.2188 53.25 21.2188 35.7188C21.2188 32.6196 22.2925 29.6161 24.2574 27.2194C26.2222 24.8226 28.9568 23.1807 31.9958 22.5729C35.0348 21.9651 38.1906 22.429 40.9261 23.8856C43.6616 25.3423 45.808 27.7017 47 30.5625V30.5625C48.192 27.7017 50.3384 25.3423 53.0739 23.8856C55.8094 22.429 58.9652 21.9651 62.0042 22.5729C65.0432 23.1807 67.7778 24.8226 69.7426 27.2194C71.7075 29.6161 72.7812 32.6196 72.7812 35.7188C72.7812 53.25 47 67.6875 47 67.6875Z" stroke="#E9333E" stroke-width="2" stroke-linecap="round" stroke-linejoin="round"/>
<path d="M72 36.9999C67.6 14.5999 53.5 22.9999 47 29.9999C32.2 15.1999 23.5 27.1666 21 35C20.6 47.8 38.1667 62 47 67.5C62.6 59.5 70.1667 43.8333 72 36.9999Z" fill="#E9333E" stroke="#E9333E"/>
</svg>
